# xmcd CD database file
#
# Track frame offsets:
#	150
#	17150
#	39037
#	62139
#	83351
#	97975
#	121374
#	143153
#	163042
#	182661
#	202982
#	218092
#	244596
#	267482
#	279163
#	291654
#	299798
#	313477
#
# Disc length: 4468 seconds
#
# Revision: 0
# Processed by: cddbd v1.5.2PL0 Copyright (c) Steve Scherf et al.
# Submitted via: CDex 1.50
#
DISCID=0e117212
DTITLE=JazzVarious - Helicon2008
DYEAR=2008
DGENRE=Jazz
TTITLE0=Ella Fitzgerald - Blue skies
TTITLE1=BB King - See that my grave is kept clean
TTITLE2=Joe Sample and Randy Crawford - Everyday I have the blues
TTITLE3=Willy Newton and Wynton Marsallis - Georgia on my mind
TTITLE4=Charly Haden and Elvis Costello - You win again
TTITLE5=Dianne Reeves - Today will be a good day
TTITLE6=David Sanborn and Eric Clapton - I'm gonna move to the outskirts of town
TTITLE7=Melody Gardot - Worrisome heart
TTITLE8=Clare Teal - Begin the beguine
TTITLE9=Patricia Barber - I get a kick out of you
TTITLE10=Brian Blade and The Fellowship Band - Stoner hill
TTITLE11=The Roy Hargrove Quintet - I'm not sure
TTITLE12=Stefano Bollani - Luz negra
TTITLE13=Brigada Victor Jara - Fado batido
TTITLE14=Georges Moustaki and China Forbes - Donne du rhum a ton hombre
TTITLE15=Luiz Bonfa and Maria Toledo - Whistle Samba
TTITLE16=Luiz Bonfa - Manha de Carnaval
TTITLE17=The Bad Plus - Lithium
EXTD=YEAR: 2008
EXTT0=
EXTT1=
EXTT2=
EXTT3=
EXTT4=
EXTT5=
EXTT6=
EXTT7=
EXTT8=
EXTT9=
EXTT10=
EXTT11=
EXTT12=
EXTT13=
EXTT14=
EXTT15=
EXTT16=
EXTT17=
PLAYORDER=
